<svg width="33" height="32" viewBox="0 0 33 32" fill="none" xmlns="http://www.w3.org/2000/svg">
<path fill-rule="evenodd" clip-rule="evenodd" d="M13.6594 3.91202C15.1421 2.47424 17.1531 1.6665 19.25 1.6665H23.375C23.9445 1.6665 24.4062 2.11422 24.4062 2.6665V7.99984C24.4062 8.55212 23.9445 8.99984 23.375 8.99984H19.25C19.1588 8.99984 19.0714 9.03496 19.0069 9.09747C18.9425 9.15998 18.9062 9.24477 18.9062 9.33317V12.3332H23.375C23.6926 12.3332 23.9924 12.475 24.1878 12.7178C24.3833 12.9605 24.4525 13.277 24.3755 13.5757L23.0005 18.909C22.8857 19.3542 22.4732 19.6665 22 19.6665H18.9062V29.3332C18.9062 29.8855 18.4445 30.3332 17.875 30.3332H12.375C11.8055 30.3332 11.3438 29.8855 11.3438 29.3332V19.6665H8.25C7.68046 19.6665 7.21875 19.2188 7.21875 18.6665V13.3332C7.21875 12.7809 7.68046 12.3332 8.25 12.3332H11.3438V9.33317C11.3438 7.29984 12.1767 5.3498 13.6594 3.91202ZM19.25 3.6665C17.7001 3.6665 16.2138 4.26353 15.1178 5.32623C14.0219 6.38894 13.4062 7.83028 13.4062 9.33317V13.3332C13.4062 13.8855 12.9445 14.3332 12.375 14.3332H9.28125V17.6665H12.375C12.9445 17.6665 13.4062 18.1142 13.4062 18.6665V28.3332H16.8438V18.6665C16.8438 18.1142 17.3055 17.6665 17.875 17.6665H21.1948L22.0542 14.3332H17.875C17.3055 14.3332 16.8438 13.8855 16.8438 13.3332V9.33317C16.8438 8.71433 17.0973 8.12084 17.5485 7.68325C17.9998 7.24567 18.6118 6.99984 19.25 6.99984H22.3438V3.6665H19.25Z" fill="white"/>
</svg>
