<svg width="32" height="32" viewBox="0 0 32 32" fill="none" xmlns="http://www.w3.org/2000/svg">
<path fill-rule="evenodd" clip-rule="evenodd" d="M10.6667 5C7.53705 5 5 7.53705 5 10.6667V21.3333C5 24.4629 7.53705 27 10.6667 27H21.3333C24.4629 27 27 24.4629 27 21.3333V10.6667C27 7.53705 24.4629 5 21.3333 5H10.6667ZM3 10.6667C3 6.43248 6.43248 3 10.6667 3H21.3333C25.5675 3 29 6.43248 29 10.6667V21.3333C29 25.5675 25.5675 29 21.3333 29H10.6667C6.43248 29 3 25.5675 3 21.3333V10.6667ZM16 11.6667C13.6068 11.6667 11.6667 13.6068 11.6667 16C11.6667 18.3932 13.6068 20.3333 16 20.3333C18.3932 20.3333 20.3333 18.3932 20.3333 16C20.3333 13.6068 18.3932 11.6667 16 11.6667ZM9.66667 16C9.66667 12.5022 12.5022 9.66667 16 9.66667C19.4978 9.66667 22.3333 12.5022 22.3333 16C22.3333 19.4978 19.4978 22.3333 16 22.3333C12.5022 22.3333 9.66667 19.4978 9.66667 16ZM24.09 9.33414C24.4594 8.92362 24.4262 8.29134 24.0156 7.92188C23.6051 7.55242 22.9728 7.58569 22.6034 7.9962L22.59 8.01102C22.2206 8.42153 22.2539 9.05382 22.6644 9.42328C23.0749 9.79274 23.7072 9.75946 24.0766 9.34895L24.09 9.33414Z" fill="white"/>
</svg>
