<svg width="33" height="32" viewBox="0 0 33 32" fill="none" xmlns="http://www.w3.org/2000/svg">
<path fill-rule="evenodd" clip-rule="evenodd" d="M27.8438 21.3333C27.8438 24.4629 25.2274 27 22 27H11C7.77259 27 5.15625 24.4629 5.15625 21.3333V10.6667C5.15625 7.53705 7.77259 5 11 5H22C25.2274 5 27.8438 7.53705 27.8438 10.6667V21.3333ZM22 29C26.3665 29 29.9062 25.5675 29.9062 21.3333V10.6667C29.9062 6.43248 26.3665 3 22 3H11C6.6335 3 3.09375 6.43248 3.09375 10.6667V21.3333C3.09375 25.5675 6.6335 29 11 29H22ZM8.59375 22.6667C8.59375 23.219 9.05546 23.6667 9.625 23.6667C10.1945 23.6667 10.6562 23.219 10.6562 22.6667V13.3333C10.6562 12.781 10.1945 12.3333 9.625 12.3333C9.05546 12.3333 8.59375 12.781 8.59375 13.3333V22.6667ZM15.125 23.6667C14.5555 23.6667 14.0938 23.219 14.0938 22.6667V13.3333C14.0938 12.781 14.5555 12.3333 15.125 12.3333C15.6945 12.3333 16.1562 12.781 16.1562 13.3333V14.4607C17.0744 13.8642 18.1781 13.5833 19.25 13.5833C20.4837 13.5833 21.7596 13.9554 22.7461 14.7526C23.7563 15.5689 24.4062 16.7886 24.4062 18.3333V22.6667C24.4062 23.219 23.9445 23.6667 23.375 23.6667C22.8055 23.6667 22.3438 23.219 22.3438 22.6667V18.3333C22.3438 17.378 21.9624 16.7227 21.4257 16.2891C20.8654 15.8362 20.0788 15.5833 19.25 15.5833C18.4212 15.5833 17.6346 15.8362 17.0743 16.2891C16.5376 16.7227 16.1562 17.378 16.1562 18.3333V22.6667C16.1562 23.219 15.6945 23.6667 15.125 23.6667ZM10.4053 10.0008C10.7863 9.59029 10.752 8.958 10.3286 8.58854C9.90529 8.21908 9.25324 8.25236 8.87224 8.66287L8.85849 8.67769C8.47748 9.0882 8.5118 9.72049 8.93514 10.0899C9.35848 10.4594 10.0105 10.4261 10.3915 10.0156L10.4053 10.0008Z" fill="white"/>
</svg>
