<svg width="32" height="32" viewBox="0 0 32 32" fill="none" xmlns="http://www.w3.org/2000/svg">
<path fill-rule="evenodd" clip-rule="evenodd" d="M23.18 5.14874C22.1916 4.90144 21.1512 4.96365 20.1994 5.32694C19.2475 5.69024 18.4302 6.33709 17.858 7.18002C17.2858 8.02295 16.9862 9.02129 16.9999 10.04L17.0001 10.0534L17 11.3867C17 11.9289 16.5679 12.3723 16.0259 12.3864C13.5179 12.4514 11.0327 11.8952 8.79174 10.7672C7.1164 9.92398 5.6164 8.78075 4.36346 7.39951C4.34973 7.45052 4.336 7.50251 4.3223 7.55546C4.02643 8.69951 3.75478 10.2628 3.83229 11.968C3.9096 13.6688 4.33282 15.4901 5.40731 17.1867C6.47778 18.8769 8.2327 20.504 11.0728 21.7663C11.4046 21.9137 11.6304 22.2295 11.6627 22.5911C11.695 22.9528 11.5287 23.3035 11.2283 23.5075C9.434 24.7254 7.42904 25.5706 5.33165 26.0092C10.0238 27.5387 14.8255 27.1079 18.6968 25.0473C23.5198 22.4803 26.9994 17.331 27 10.0152C26.9989 9.70622 26.9691 9.398 26.9111 9.09449C26.8484 8.76663 26.9535 8.42912 27.1912 8.19473C27.5997 7.79187 28.054 7.08757 28.4765 6.31582C27.8866 6.59708 27.2785 6.85731 26.7683 7.01094C26.3917 7.12435 25.9836 7.00644 25.7254 6.70965C25.0569 5.9409 24.1683 5.39603 23.18 5.14874ZM30.6863 6.40094C30.2426 7.29608 29.6281 8.41844 28.9534 9.22711C28.9836 9.4869 28.9991 9.7483 29 10.0101L29 10.0134C29 18.03 25.1465 23.8801 19.6365 26.8128C14.1509 29.7326 7.1242 29.7078 0.847682 26.2209C0.442871 25.996 0.245425 25.5226 0.370473 25.0767C0.495522 24.6308 0.910348 24.3291 1.37307 24.3475C3.88538 24.4475 6.37006 23.8931 8.58858 22.7526C6.34538 21.4776 4.77658 19.9287 3.71767 18.2568C2.41717 16.2034 1.92371 14.0246 1.83436 12.0588C1.7452 10.0974 2.05689 8.32731 2.38601 7.05469C2.55117 6.41606 2.72238 5.89639 2.85384 5.53278C2.91962 5.35082 2.97563 5.20747 3.01619 5.10734C3.03648 5.05726 3.05292 5.01795 3.06482 4.98998L3.07917 4.95659L3.08362 4.94639L3.08514 4.94294L3.08572 4.94163C3.08572 4.94163 3.08618 4.9406 3.99999 5.34674L3.08572 4.94163C3.23203 4.61243 3.54457 4.38634 3.90313 4.35144C4.26169 4.31655 4.61131 4.47721 4.81835 4.77203C6.07066 6.55525 7.74455 8.00109 9.69093 8.98077C11.3466 9.81412 13.1557 10.2882 15 10.3764V10.0598C14.9823 8.63385 15.4022 7.23669 16.2033 6.0567C17.0056 4.87479 18.1516 3.96781 19.4862 3.45842" fill="white"/>
<path d="M30.6667 4.01341C30.6667 4.01341 27.9761 5.60289 26.48 6.05341C25.6769 5.13009 24.6097 4.47567 23.4227 4.17864C22.2356 3.88163 20.986 3.95633 19.8428 4.39268C18.6996 4.82903 17.7179 5.60595 17.0307 6.61836C16.3433 7.63079 15.9836 8.82985 16 10.0534V11.3867C13.6568 11.4475 11.335 10.9278 9.24136 9.874C7.14766 8.82017 5.3471 7.26492 4.00001 5.34675C4.00001 5.34675 -1.33332 17.3468 10.6667 22.6801C7.92072 24.544 4.64956 25.4787 1.33334 25.3468C13.3333 32.0135 28 25.3468 28 10.0134C27.9988 9.64201 27.9631 9.27153 27.8933 8.90675C29.2541 7.56473 30.6667 4.01341 30.6667 4.01341Z" stroke="white" stroke-width="1.5" stroke-linecap="round" stroke-linejoin="round"/>
</svg>
