<svg width="32" height="32" viewBox="0 0 32 32" fill="none" xmlns="http://www.w3.org/2000/svg">
<path fill-rule="evenodd" clip-rule="evenodd" d="M16 5.5332C14.4117 5.5332 12.561 5.56998 10.7553 5.62105L10.682 5.62313C8.84354 5.6751 7.36149 5.71699 6.19282 5.91026C4.97599 6.11149 3.96515 6.49549 3.15697 7.32685C2.34662 8.16044 1.99268 9.1914 1.82654 10.4248C1.66663 11.6119 1.66665 13.1153 1.66667 14.9836V14.9836V17.0163V17.0163C1.66665 18.8845 1.66663 20.3879 1.82654 21.575C1.99268 22.8084 2.34662 23.8393 3.15695 24.6729C3.96512 25.5043 4.97594 25.8883 6.19276 26.0895C7.36141 26.2828 8.84344 26.3247 10.6818 26.3767H10.6819L10.7552 26.3788C12.5609 26.4299 14.4116 26.4667 16 26.4667C17.5884 26.4667 19.4391 26.4299 21.2448 26.3788L21.3181 26.3767H21.3182C23.1566 26.3247 24.6386 26.2828 25.8073 26.0895C27.0241 25.8883 28.0349 25.5043 28.8431 24.6729C29.6534 23.8393 30.0073 22.8084 30.1735 21.575C30.3334 20.3879 30.3334 18.8845 30.3333 17.0163V14.9835C30.3334 13.1153 30.3334 11.6119 30.1735 10.4248C30.0073 9.1914 29.6534 8.16044 28.843 7.32685C28.0349 6.49549 27.024 6.11149 25.8072 5.91026C24.6385 5.71699 23.1565 5.6751 21.3181 5.62313L21.2447 5.62105C19.439 5.56998 17.5884 5.5332 16 5.5332ZM10.8119 7.62025C12.609 7.56943 14.4385 7.5332 16 7.5332C17.5615 7.5332 19.3911 7.56943 21.1881 7.62025C23.1173 7.67482 24.4625 7.71504 25.4809 7.88346C26.4666 8.04648 27.0098 8.31034 27.409 8.72093C27.806 9.1293 28.0557 9.68443 28.1914 10.6918C28.3312 11.7299 28.3333 13.0982 28.3333 15.0565V16.9434C28.3333 18.9017 28.3312 20.2699 28.1914 21.308C28.0557 22.3154 27.806 22.8705 27.409 23.2789C27.0099 23.6895 26.4667 23.9533 25.4809 24.1163C24.4625 24.2848 23.1173 24.325 21.1883 24.3796C19.3911 24.4304 17.5615 24.4667 16 24.4667C14.4385 24.4667 12.6089 24.4304 10.8118 24.3796C8.88267 24.325 7.53749 24.2848 6.51909 24.1163C5.53336 23.9533 4.99016 23.6895 4.59102 23.2789C4.19404 22.8705 3.94433 22.3154 3.80864 21.308C3.6688 20.2699 3.66667 18.9017 3.66667 16.9434V15.0565C3.66667 13.0982 3.6688 11.7299 3.80864 10.6918C3.94433 9.68444 4.19405 9.1293 4.59103 8.72093C4.99018 8.31034 5.53338 8.04648 6.51914 7.88346C7.53755 7.71504 8.88276 7.67482 10.8119 7.62025ZM13.4981 19.5315C13.8064 19.7104 14.1866 19.7116 14.4961 19.5348L19.1628 16.8681C19.4744 16.6901 19.6667 16.3587 19.6667 15.9999C19.6667 15.641 19.4744 15.3097 19.1628 15.1316L14.4961 12.465C14.1866 12.2881 13.8064 12.2894 13.4981 12.4683C13.1898 12.6472 13 12.9767 13 13.3332V18.6665C13 19.023 13.1898 19.3525 13.4981 19.5315Z" fill="white"/>
</svg>
